HIERARCHY
ROOT Hips
{
	OFFSET 0.00000 0.00000 0.00000
	CHANNELS 6 Xposition Yposition Zposition Zrotation Yrotation Xrotation 
	JOINT LHipJoint
	{
		OFFSET 0 0 0
		CHANNELS 3 Zrotation Yrotation Xrotation
		JOINT LeftHip
		{
			OFFSET 1.53139 -1.83434 0.76626
			CHANNELS 3 Zrotation Yrotation Xrotation
			JOINT LeftKnee
			{
				OFFSET 2.56112 -7.03663 0.00000
				CHANNELS 3 Zrotation Yrotation Xrotation
				JOINT LeftAnkle
				{
					OFFSET 2.59983 -7.14299 0.00000
					CHANNELS 3 Zrotation Yrotation Xrotation
					JOINT LeftToe
					{
						OFFSET 0.13742 -0.37757 2.00054
						CHANNELS 3 Zrotation Yrotation Xrotation
						End Site
						{
							OFFSET 0.00000 -0.00000 1.02897
						}
					}
				}
			}
		}
	}
	JOINT RHipJoint
	{
		OFFSET 0 0 0
		CHANNELS 3 Zrotation Yrotation Xrotation
		JOINT RightHip
		{
			OFFSET -1.40122 -1.83435 0.76627
			CHANNELS 3 Zrotation Yrotation Xrotation
			JOINT RightKnee
			{
				OFFSET -2.54052 -6.98003 0.00000
				CHANNELS 3 Zrotation Yrotation Xrotation
				JOINT RightAnkle
				{
					OFFSET -2.63179 -7.23079 0.00000
					CHANNELS 3 Zrotation Yrotation Xrotation
					JOINT RightToe
					{
						OFFSET -0.24131 -0.66299 2.03908
						CHANNELS 3 Zrotation Yrotation Xrotation
						End Site
						{
							OFFSET -0.00000 -0.00000 1.07391
						}
					}
				}
			}
		}
	}
	JOINT lowerback
	{
		OFFSET 0 0 0
		CHANNELS 3 Zrotation Yrotation Xrotation
		JOINT Chest
		{
			OFFSET 0.01174 2.10302 -0.29778
			CHANNELS 3 Zrotation Yrotation Xrotation
			JOINT Chest2
			{
				OFFSET 0.00772 2.13227 -0.01247
				CHANNELS 3 Zrotation Yrotation Xrotation
				JOINT lowerneck
				{
					OFFSET 0 0 0
					CHANNELS 3 Zrotation Yrotation Xrotation
					JOINT Neck
					{
						OFFSET -0.09219 1.60848 0.31481
						CHANNELS 3 Zrotation Yrotation Xrotation
						JOINT Head
						{
							OFFSET 0.13974 1.65456 -0.31134
							CHANNELS 3 Zrotation Yrotation Xrotation
							End Site
							{
								OFFSET 0.04742 1.69515 -0.14578
							}
						}
					}
				}
				JOINT LeftCollar
				{
					OFFSET 0 0 0
					CHANNELS 3 Zrotation Yrotation Xrotation
					JOINT LeftShoulder
					{
						OFFSET 3.24909 1.02882 -0.23993
CHANNELS 3 Zrotation Xrotation Yrotation
						JOINT LeftElbow
						{
OFFSET 0 -5.329550 -0.000000
CHANNELS 3 Zrotation Xrotation Yrotation
							JOINT LeftWrist
							{
OFFSET 0 -3.692320 -0.000000
CHANNELS 3 Zrotation Xrotation Yrotation
								JOINT lhand
								{
									OFFSET 0 0 0
CHANNELS 3 Zrotation Xrotation Yrotation
									JOINT LFingers
									{
OFFSET 0 -0.536600 -0.000000
CHANNELS 3 Zrotation Xrotation Yrotation
										End Site
										{
OFFSET 0 -0.432620 -0.000000
										}
									}
								}
								JOINT LThumb
								{
OFFSET 0 0.000000 0.000000
CHANNELS 3 Zrotation Xrotation Yrotation
									End Site
									{
OFFSET 0 -0.439220 0.439220
									}
								}
							}
						}
					}
				}
				JOINT RightCollar
				{
					OFFSET 0 0 0
					CHANNELS 3 Zrotation Yrotation Xrotation
					JOINT RightShoulder
					{
						OFFSET -3.21387 0.93002 -0.34594
CHANNELS 3 Zrotation Xrotation Yrotation
						JOINT RightElbow
						{
OFFSET 0 -5.234310 0.000000
CHANNELS 3 Zrotation Xrotation Yrotation
							JOINT RightWrist
							{
OFFSET 0 -3.553010 -0.000000
CHANNELS 3 Zrotation Xrotation Yrotation
								JOINT rhand
								{
									OFFSET 0 0 0
CHANNELS 3 Zrotation Xrotation Yrotation
									JOINT RFingers
									{
OFFSET 0 -0.772520 -0.000000
CHANNELS 3 Zrotation Xrotation Yrotation
										End Site
										{
OFFSET 0 -0.622830 -0.000000
										}
									}
								}
								JOINT RThumb
								{
OFFSET 0 0.000000 0.000000
CHANNELS 3 Zrotation Xrotation Yrotation
									End Site
									{
OFFSET 0 -0.632340 0.632340
									}
								}
							}
						}
					}
				}
			}
		}
	}
}
MOTION
Frames: 12
Frame Time: 0.008333333333333333
12.327300 17.859300 -11.096800 -1.387100 3.614400 2.272500 0.000000 0.000000 0.000000 -16.287900 -9.157400 -13.461100 4.543900 12.851000 38.813400 0.462300 -3.486800 -12.123700 0.445200 -4.280900 -11.868300 0.000000 0.000000 0.000000 27.834300 0.354200 -7.539600 -1.987900 -8.840900 25.299000 -1.021400 2.440700 -18.439200 -0.095000 -1.988000 5.472500 1.295700 0.467800 9.381000 1.117000 0.815300 0.534600 0.324200 0.387000 -4.705000 -12.134300 -5.772500 -18.507900 7.609000 -7.039500 33.299800 4.014300 -3.469800 15.596400 -0.000000 0.000000 0.000000 1.382000 7.694100 -18.226700 21.706100 -32.643300 6.426600 20.514700 11.506600 -27.481700 0.000000 0.000000 0.000000 -7.125000 0.000000 0.000000 -11.133300 58.679700 3.753200 -0.000000 0.000000 0.000000 -0.825200 2.299100 14.354900 -15.565000 -24.927300 -3.460600 -14.902100 4.621800 -9.601900 0.000000 0.000000 0.000000 7.125000 0.000000 -0.000000 8.607900 20.104000 5.182800
12.313732 17.852472 -11.088993 -1.570832 3.586417 2.057624 0.000000 0.000000 0.000000 -16.024702 -9.169765 -14.044898 4.811041 13.167679 39.999655 0.443788 -3.246272 -11.889898 0.497315 -4.520731 -12.546474 0.000000 0.000000 0.000000 28.079604 0.219069 -7.242566 -1.965987 -8.794914 25.155830 -1.021118 2.556724 -18.413133 -0.114171 -2.178514 5.999209 1.398120 0.539424 9.532615 1.212732 0.926378 0.701923 0.350717 0.441624 -4.614951 -12.231042 -5.838765 -18.512985 7.675864 -7.116185 33.127256 4.038413 -3.501931 15.534216 0.000000 0.000000 0.000000 1.422035 7.561787 -18.490383 21.867924 -32.827430 6.514162 20.649728 11.305850 -26.881906 0.000000 0.000000 0.000000 -7.125000 0.000000 0.000000 -10.665492 58.107017 3.446021 0.000000 0.000000 0.000000 -0.890499 1.997035 14.288018 -15.493676 -24.829304 -3.430532 -14.936730 4.594549 -9.815756 0.000000 0.000000 0.000000 7.125000 0.000000 0.000000 8.578196 19.883798 5.207349
12.301025 17.850461 -11.080715 -1.708714 3.520855 1.878224 0.000000 0.000000 0.000000 -15.821818 -9.115639 -14.666471 5.048899 13.438479 41.033151 0.435548 -3.029121 -11.794464 0.610789 -5.002037 -13.914324 0.000000 0.000000 0.000000 28.268126 0.009992 -6.966768 -1.927032 -8.712414 24.899819 -1.007510 2.657820 -18.265380 -0.111549 -2.152907 5.928377 1.460973 0.601035 9.737372 1.289614 1.022162 0.777246 0.380629 0.488314 -4.650864 -12.315480 -5.880086 -18.452531 7.748465 -7.174870 33.010216 4.069351 -3.526627 15.480655 0.000000 0.000000 0.000000 1.449957 7.585626 -18.625142 22.041892 -33.024286 6.608650 20.300692 10.927070 -26.300950 0.000000 0.000000 0.000000 -7.125000 0.000000 0.000000 -10.740368 57.444766 3.298713 0.000000 0.000000 0.000000 -0.987325 1.890138 14.496856 -15.500392 -24.838504 -3.433359 -15.080216 4.266986 -10.295993 0.000000 0.000000 0.000000 7.125000 0.000000 0.000000 8.466389 19.385278 5.233303
12.290615 17.852752 -11.065999 -1.802464 3.505343 1.732396 0.000000 0.000000 0.000000 -15.688131 -9.122795 -15.269687 5.267604 13.678801 41.966108 0.437673 -3.004060 -11.826812 0.668027 -5.226708 -14.556376 0.000000 0.000000 0.000000 28.399581 -0.266172 -6.688141 -1.886253 -8.625081 24.629395 -1.000580 2.784866 -18.175918 -0.094291 -1.980229 5.450931 1.546625 0.630092 9.891744 1.311984 1.075166 0.770436 0.346813 0.512319 -4.742998 -12.318156 -5.865216 -18.169734 7.800155 -7.200706 32.899320 4.086293 -3.535229 15.368161 0.000000 0.000000 0.000000 1.569684 7.680330 -18.741445 22.127792 -33.121188 6.655510 20.173057 10.724927 -26.116245 0.000000 0.000000 0.000000 -7.125000 0.000000 0.000000 -10.783264 57.231058 3.256295 0.000000 0.000000 0.000000 -1.017007 1.935362 14.796566 -15.541198 -24.894666 -3.450521 -15.106841 4.036131 -10.413444 0.000000 0.000000 0.000000 7.125000 0.000000 0.000000 8.445328 19.263609 5.243184
12.280743 17.854166 -11.048324 -1.856864 3.428891 1.619525 0.000000 0.000000 0.000000 -15.606628 -9.177541 -15.810290 5.453158 13.876578 42.745254 0.446579 -3.195935 -11.932939 0.644806 -5.135373 -14.295273 0.000000 0.000000 0.000000 28.474985 -0.508988 -6.400244 -1.839372 -8.523009 24.314373 -0.999721 2.933475 -18.141012 -0.074692 -1.762821 4.850662 1.614311 0.689861 9.949011 1.313187 1.162280 0.832743 0.297564 0.554348 -4.708301 -12.314207 -5.874444 -18.094811 7.847865 -7.239400 32.848414 4.097812 -3.545205 15.334131 0.000000 0.000000 0.000000 1.684379 7.653740 -18.878989 22.189636 -33.190691 6.689384 20.536665 10.897718 -26.206497 0.000000 0.000000 0.000000 -7.125000 0.000000 0.000000 -10.441367 57.400695 3.194410 0.000000 0.000000 0.000000 -1.007386 1.840712 14.948622 -15.566569 -24.929419 -3.461220 -14.953047 3.827532 -10.370251 0.000000 0.000000 0.000000 7.125000 0.000000 0.000000 8.554921 19.316788 5.302449
12.268299 17.857280 -11.031752 -1.907595 3.321166 1.569426 0.000000 0.000000 0.000000 -15.497362 -9.253699 -16.393028 5.605747 14.035000 43.378142 0.445278 -3.683116 -11.884691 0.509103 -4.569841 -12.686076 0.000000 0.000000 0.000000 28.553593 -0.628240 -6.146231 -1.789561 -8.413148 23.976236 -0.992272 2.992936 -18.059695 -0.070259 -1.709558 4.703717 1.614834 0.781656 9.975278 1.343818 1.284866 0.906086 0.312395 0.615753 -4.646347 -12.352514 -5.950941 -18.195352 7.867901 -7.335219 32.867673 4.093955 -3.585418 15.383779 0.000000 0.000000 0.000000 1.733175 7.598788 -19.013488 22.279616 -33.291645 6.738689 20.723501 11.163168 -26.594365 0.000000 0.000000 0.000000 -7.125000 0.000000 0.000000 -10.437658 57.833295 3.302537 0.000000 0.000000 0.000000 -1.005376 1.654034 15.043110 -15.593875 -24.966943 -3.472741 -15.120933 3.543912 -10.686207 0.000000 0.000000 0.000000 7.125000 0.000000 0.000000 8.430672 18.984244 5.286942
12.256403 17.859856 -11.015593 -1.992666 3.191206 1.496811 0.000000 0.000000 0.000000 -15.334907 -9.178815 -17.005721 5.725075 14.156499 43.867963 0.431871 -4.297230 -11.689297 0.369256 -3.903055 -10.804009 0.000000 0.000000 0.000000 28.678955 -0.752673 -5.880470 -1.741071 -8.304460 23.642655 -0.981483 3.021775 -17.953044 -0.058858 -1.564424 4.303229 1.628900 0.867391 10.077393 1.382149 1.403617 0.961395 0.326950 0.674512 -4.645590 -12.419855 -6.022871 -18.185419 7.940059 -7.442831 32.801343 4.113335 -3.628572 15.373070 0.000000 0.000000 0.000000 1.807286 7.666714 -19.145689 22.423648 -33.452530 6.817921 20.849720 11.409689 -27.168007 0.000000 0.000000 0.000000 -7.125000 0.000000 0.000000 -10.600566 58.440014 3.509847 0.000000 0.000000 0.000000 -1.036074 1.477477 15.325285 -15.611339 -24.990811 -3.480148 -15.466596 3.344388 -10.599274 0.000000 0.000000 0.000000 7.125000 0.000000 0.000000 8.188313 19.052102 5.119274
12.247914 17.860491 -10.996374 -2.129470 3.022221 1.370249 0.000000 0.000000 0.000000 -15.148842 -9.000798 -17.548464 5.808544 14.240216 44.208545 0.426230 -4.651215 -11.619811 0.379417 -3.951715 -10.941381 0.000000 0.000000 0.000000 28.846171 -0.936853 -5.589418 -1.701130 -8.213590 23.364825 -0.974091 3.134626 -17.863701 -0.046442 -1.390154 3.822972 1.749290 0.952876 10.203066 1.419861 1.533988 1.042859 0.278880 0.737173 -4.627829 -12.460791 -6.075238 -18.180049 8.011629 -7.526083 32.682721 4.130548 -3.657483 15.333550 0.000000 0.000000 0.000000 1.888107 7.717727 -19.260426 22.544974 -33.587424 6.884862 20.950849 11.481908 -27.508440 0.000000 0.000000 0.000000 -7.125000 0.000000 0.000000 -10.673938 58.805911 3.628432 0.000000 0.000000 0.000000 -1.104687 1.277301 15.702949 -15.605798 -24.983274 -3.477802 -15.649313 3.145436 -10.206211 0.000000 0.000000 0.000000 7.125000 0.000000 0.000000 8.065070 19.443673 4.969497
12.242570 17.860304 -10.975414 -2.220845 2.872889 1.260070 0.000000 0.000000 0.000000 -15.037082 -8.910802 -18.018553 5.853284 14.284673 44.390157 0.430913 -4.785879 -11.688287 0.506020 -4.557615 -12.651423 0.000000 0.000000 0.000000 28.943522 -1.076531 -5.305976 -1.670672 -8.143410 23.150630 -0.970993 3.269915 -17.812450 -0.043090 -1.338934 3.681958 1.870208 1.045719 10.290252 1.431314 1.672258 1.103006 0.202558 0.803609 -4.609640 -12.374730 -6.108497 -18.227607 7.985172 -7.587754 32.649026 4.090069 -3.674249 15.330967 0.000000 0.000000 0.000000 2.024946 7.798912 -19.499502 22.655278 -33.709690 6.946017 21.087657 11.227864 -27.329019 0.000000 0.000000 0.000000 -7.125000 0.000000 0.000000 -10.429113 58.656268 3.506925 0.000000 0.000000 0.000000 -1.111851 1.142975 15.819682 -15.592488 -24.964995 -3.472128 -15.521519 3.065450 -9.987531 0.000000 0.000000 0.000000 7.125000 0.000000 0.000000 8.159350 19.675230 4.986160
12.236374 17.859500 -10.953199 -2.179085 2.755703 1.217243 0.000000 0.000000 0.000000 -15.058053 -8.822445 -18.515129 5.854793 14.286129 44.396120 0.434743 -4.902035 -11.744212 0.606813 -4.986138 -13.868934 0.000000 0.000000 0.000000 28.893311 -1.172307 -5.089564 -1.645935 -8.086009 22.975639 -0.970160 3.444588 -17.777867 -0.052861 -1.483043 4.079058 1.859032 1.127339 10.303751 1.391846 1.776924 1.139264 0.153212 0.855476 -4.577375 -12.300186 -6.118981 -18.233276 7.983699 -7.626113 32.620492 4.067855 -3.680344 15.319697 0.000000 0.000000 0.000000 2.209461 7.899637 -19.616599 22.712391 -33.772761 6.977713 20.846847 10.584001 -26.463775 0.000000 0.000000 0.000000 -7.125000 0.000000 0.000000 -10.240123 57.728947 3.212396 0.000000 0.000000 0.000000 -1.068685 1.054098 15.869835 -15.602893 -24.979238 -3.476578 -15.239900 3.068960 -9.714171 0.000000 0.000000 0.000000 7.125000 0.000000 0.000000 8.365030 19.970913 5.058482
12.228558 17.859874 -10.926961 -2.063221 2.669727 1.277578 0.000000 0.000000 0.000000 -15.145133 -8.752706 -19.064375 5.814598 14.246211 44.232863 0.430385 -5.080935 -11.696041 0.605240 -4.979507 -13.850085 0.000000 0.000000 0.000000 28.766428 -1.324407 -5.009018 -1.622241 -8.030326 22.806199 -0.970493 3.650312 -17.751636 -0.056511 -1.534099 4.219644 1.778663 1.202011 10.194021 1.318336 1.860267 1.139824 0.112810 0.898084 -4.514861 -12.326671 -6.144914 -18.184403 8.072624 -7.691834 32.586525 4.097548 -3.700024 15.307942 0.000000 0.000000 0.000000 2.389713 7.967938 -19.486379 22.648089 -33.701708 6.942047 20.097255 9.814273 -25.259830 0.000000 0.000000 0.000000 -7.125000 0.000000 0.000000 -10.446865 56.350575 2.929533 0.000000 0.000000 0.000000 -1.014847 1.021788 16.038635 -15.662829 -25.061263 -3.501901 -14.987664 3.056826 -9.417101 0.000000 0.000000 0.000000 7.125000 0.000000 0.000000 8.551550 20.288114 5.112459
12.221095 17.863049 -10.900210 -1.958393 2.576738 1.358099 0.000000 0.000000 0.000000 -15.223979 -8.729951 -19.577810 5.739614 14.171138 43.927519 0.422669 -5.246050 -11.605459 0.577893 -4.868063 -13.532586 0.000000 0.000000 0.000000 28.664158 -1.450210 -4.932978 -1.594967 -7.965782 22.610350 -0.968213 3.741704 -17.717532 -0.048227 -1.417718 3.898883 1.717756 1.282430 10.089567 1.244717 1.954053 1.125758 0.059828 0.945311 -4.469817 -12.317113 -6.173980 -18.200346 8.122755 -7.754164 32.577996 4.104868 -3.717693 15.318666 0.000000 0.000000 0.000000 2.532769 8.078302 -19.359189 22.626274 -33.677560 6.929974 19.604749 9.599902 -24.910712 0.000000 0.000000 0.000000 -7.125000 0.000000 0.000000 -10.798488 55.896123 2.910911 0.000000 0.000000 0.000000 -0.985645 0.951105 16.273918 -15.657615 -25.054152 -3.499674 -14.794079 2.824582 -9.505307 0.000000 0.000000 0.000000 7.125000 0.000000 0.000000 8.687304 20.208205 5.211371
